# This file uses centimeters as units for non-parametric coordinates.

mtllib SM_Hammock_02.mtl
g default
v -0.931816 0.302999 0.259790
v -0.932961 0.201432 0.188392
v -0.960846 0.218373 0.031072
v -0.948128 0.268137 -0.058405
v -1.929159 0.915505 0.138212
v -1.896843 0.916253 0.127641
v -1.895224 0.938153 0.200466
v -1.927734 0.940813 0.213577
v -1.924952 1.009957 0.246267
v -1.890518 0.992888 0.224731
v -0.938282 0.370298 0.487119
v -0.943130 0.361975 0.519655
v -1.923845 0.944427 0.078470
v -1.890818 0.942465 0.088947
v -1.891022 0.929408 0.101991
v -1.925022 0.925149 0.097278
v -0.941362 0.357113 -0.266564
v -0.938810 0.360274 -0.232966
v -1.889151 0.984548 0.063356
v -1.926809 1.008643 0.043960
v -2.303530 1.880744 0.128572
v -2.286133 1.880744 0.122997
v -2.306953 1.880744 0.163349
v -2.287910 1.880744 0.166361
v 0.000000 0.026217 0.256432
v 0.000000 -0.021795 0.194553
v 0.000000 0.000000 0.000000
v 0.000000 0.074328 -0.073513
v 0.000000 0.164748 0.587900
v 0.000000 0.174172 0.555634
v 0.000000 0.163679 -0.299982
v 0.000000 0.160109 -0.333273
v 0.931816 0.302999 0.259789
v 0.932961 0.201432 0.188389
v 0.960846 0.218372 0.031072
v 0.948128 0.268137 -0.058407
v 1.929159 0.915506 0.138212
v 1.896843 0.916253 0.127641
v 1.895224 0.938153 0.200466
v 1.927734 0.940813 0.213577
v 1.924952 1.009957 0.246267
v 1.890518 0.992888 0.224731
v 0.938282 0.370298 0.487119
v 0.943130 0.361974 0.519653
v 1.923845 0.944427 0.078468
v 1.890818 0.942465 0.088945
v 1.891022 0.929408 0.101991
v 1.925022 0.925149 0.097278
v 0.941362 0.357113 -0.266566
v 0.938810 0.360274 -0.232968
v 1.889151 0.984548 0.063356
v 1.926809 1.008643 0.043960
v 2.303530 1.880744 0.128572
v 2.286133 1.880744 0.122997
v 2.306953 1.880744 0.163349
v 2.287910 1.880744 0.166361
v -1.925558 0.994886 0.239142
v -1.891544 0.980958 0.219442
v -0.936873 0.355629 0.437570
v 0.000000 0.141923 0.490419
v 0.936873 0.355629 0.437570
v 1.891544 0.980958 0.219442
v 1.925558 0.994886 0.239142
v -1.926551 0.970217 0.227479
v -1.893223 0.961430 0.210785
v -0.934566 0.331619 0.356464
v 0.000000 0.089137 0.383671
v 0.934566 0.331619 0.356464
v 1.893223 0.961430 0.210785
v 1.926551 0.970217 0.227479
v -1.893996 0.922687 0.115096
v -0.946599 0.209718 0.111448
v 0.000000 -0.011135 0.099399
v 0.946599 0.209717 0.111447
v 1.893996 0.922687 0.115096
v -1.925317 0.976327 0.061327
v -1.889990 0.963370 0.076234
v -0.943499 0.313908 -0.145121
v 0.000000 0.118715 -0.186015
v 0.943499 0.313908 -0.145123
v 1.889990 0.963370 0.076233
v 1.925317 0.976327 0.061326
vt 0.282881 0.116803
vt 0.273193 0.090963
vt 0.488905 0.096568
vt 0.488878 0.114209
vt 0.273409 0.174882
vt 0.275757 0.151965
vt 0.488845 0.158330
vt 0.488830 0.181780
vt 0.087877 0.981083
vt 0.096268 0.990741
vt 0.077871 0.990741
vt 0.057145 0.981083
vt 0.017903 0.111984
vt 0.009761 0.113494
vt 0.003748 0.095723
vt 0.012706 0.100049
vt 0.265086 0.030346
vt 0.265439 0.037986
vt 0.488951 0.014310
vt 0.488964 0.021829
vt 0.010444 0.137412
vt 0.018239 0.139378
vt 0.013509 0.149151
vt 0.003354 0.153194
vt 0.266119 0.226080
vt 0.266438 0.218455
vt 0.488737 0.236465
vt 0.488705 0.243968
vt 0.020598 0.128901
vt 0.019906 0.135547
vt 0.087877 0.440384
vt 0.087877 0.440384
vt 0.128790 0.438651
vt 0.128790 0.438651
vt 0.128790 0.984213
vt 0.014406 0.440384
vt 0.044406 0.440384
vt 0.044406 0.987217
vt 0.014406 0.987217
vt 0.057145 0.440384
vt 0.087877 0.444676
vt 0.128790 0.444676
vt 0.696706 0.117117
vt 0.706652 0.091334
vt 0.705887 0.175362
vt 0.703682 0.152367
vt 0.214878 0.981523
vt 0.245844 0.981522
vt 0.225018 0.991366
vt 0.206748 0.991367
vt 0.969993 0.112450
vt 0.975397 0.100650
vt 0.984473 0.096432
vt 0.978125 0.114103
vt 0.713929 0.038037
vt 0.714152 0.030424
vt 0.977638 0.137635
vt 0.984854 0.153307
vt 0.974586 0.149349
vt 0.969817 0.139626
vt 0.712904 0.227118
vt 0.712700 0.219511
vt 0.967306 0.129274
vt 0.968050 0.135869
vt 0.214878 0.435334
vt 0.214878 0.435334
vt 0.173465 0.439690
vt 0.173465 0.985678
vt 0.173465 0.439690
vt 0.144201 0.985678
vt 0.144202 0.439690
vt 0.258713 0.435334
vt 0.258713 0.986811
vt 0.245844 0.435334
vt 0.214878 0.439656
vt 0.173465 0.439656
vt 0.005059 0.099596
vt 0.013839 0.102650
vt 0.267129 0.049533
vt 0.488951 0.038119
vt 0.712343 0.049654
vt 0.974219 0.103222
vt 0.983089 0.100284
vt 0.007204 0.105937
vt 0.015693 0.106909
vt 0.269896 0.068434
vt 0.488930 0.064784
vt 0.709747 0.068669
vt 0.972291 0.107432
vt 0.980825 0.106588
vt 0.020260 0.132151
vt 0.087877 0.440384
vt 0.279397 0.134000
vt 0.488862 0.135788
vt 0.700118 0.134357
vt 0.967670 0.132500
vt 0.214878 0.435334
vt 0.006922 0.145252
vt 0.015889 0.144233
vt 0.269946 0.196528
vt 0.488784 0.208946
vt 0.709271 0.197294
vt 0.972186 0.144456
vt 0.981223 0.145420
vn 0.366964 0.900739 -0.232392
vn 0.364564 0.807203 -0.464238
vn -0.000002 0.867241 -0.497888
vn -0.000001 0.976283 -0.216499
vn 0.347327 0.801722 0.486422
vn 0.387611 0.881864 0.268464
vn 0.000000 0.958490 0.285125
vn 0.000000 0.872645 0.488355
vn 0.227076 0.969823 0.088768
vn 0.227316 0.969769 0.088743
vn 0.000000 0.958490 0.285125
vn 0.387611 0.881864 0.268464
vn -0.000003 1.000000 -0.000002
vn -0.000003 1.000000 -0.000002
vn -0.000003 1.000000 -0.000002
vn -0.000003 1.000000 -0.000002
vn -0.320291 0.411642 -0.853208
vn -0.320291 0.411642 -0.853208
vn -0.319223 0.411735 -0.853564
vn -0.317759 0.411867 -0.854046
vn 0.555610 0.810199 -0.186747
vn 0.491920 0.842079 0.221174
vn 0.339104 0.906825 0.250352
vn 0.369081 0.885336 -0.282771
vn 0.369081 0.885336 -0.282771
vn 0.339104 0.906825 0.250352
vn 0.000006 0.960956 0.276701
vn -0.000000 0.951154 -0.308716
vn -0.175657 0.482895 0.857879
vn -0.192011 0.481239 0.855302
vn -0.184334 0.482075 0.856519
vn -0.184334 0.482075 0.856519
vn 0.368862 0.925090 -0.090277
vn 0.370537 0.856533 0.359240
vn -0.000001 0.936835 0.349772
vn -0.000006 0.994185 -0.107688
vn 0.370537 0.856533 0.359240
vn 0.368862 0.925090 -0.090277
vn 0.533187 0.842968 -0.071534
vn 0.579792 0.757023 0.301261
vn 0.580959 0.770643 -0.261910
vn 0.537595 0.724138 -0.431991
vn 0.364564 0.807203 -0.464238
vn 0.366964 0.900739 -0.232392
vn 0.550470 0.752662 -0.361224
vn 0.547595 0.754354 -0.362064
vn 0.364564 0.807203 -0.464238
vn 0.537595 0.724138 -0.431991
vn 0.245027 0.898470 -0.364299
vn 0.245960 0.898255 -0.364200
vn -0.000002 0.867241 -0.497888
vn 0.364564 0.807203 -0.464238
vn 0.566793 0.669467 0.480166
vn 0.595130 0.760839 0.258735
vn 0.387611 0.881864 0.268464
vn 0.347327 0.801722 0.486422
vn 0.571490 0.666699 0.478447
vn 0.569947 0.667631 0.478987
vn 0.370537 0.856533 0.359240
vn 0.579792 0.757023 0.301261
vn 0.202031 0.890490 0.407690
vn 0.201843 0.890527 0.407702
vn -0.000001 0.936835 0.349772
vn 0.370537 0.856533 0.359240
vn 0.600888 0.797178 0.058664
vn 0.600054 0.797791 0.058866
vn 0.387611 0.881864 0.268464
vn 0.595130 0.760839 0.258735
vn 0.859467 0.348658 0.373836
vn 0.859440 0.348689 0.373871
vn 0.859467 0.348658 0.373836
vn 0.859468 0.348658 0.373836
vn -0.917037 -0.357430 -0.176879
vn -0.917037 -0.357430 -0.176879
vn -0.917037 -0.357430 -0.176879
vn -0.928516 -0.365187 0.067059
vn -0.928516 -0.365187 0.067059
vn -0.928516 -0.365187 0.067059
vn -0.928516 -0.365187 0.067059
vn 0.196899 0.124312 0.972511
vn 0.196899 0.124312 0.972511
vn 0.196899 0.124312 0.972511
vn 0.196899 0.124312 0.972511
vn 0.923474 0.377249 -0.069847
vn 0.923474 0.377249 -0.069847
vn 0.923474 0.377249 -0.069847
vn 0.923474 0.377249 -0.069847
vn 0.099699 0.085724 -0.991318
vn 0.099699 0.085724 -0.991318
vn 0.099699 0.085724 -0.991318
vn 0.099699 0.085724 -0.991318
vn -0.860408 -0.327981 -0.390035
vn -0.860408 -0.327981 -0.390035
vn -0.860408 -0.327981 -0.390035
vn 0.862934 0.350303 0.364188
vn 0.862934 0.350303 0.364188
vn 0.862934 0.350303 0.364188
vn -0.366961 0.900740 -0.232394
vn -0.000001 0.976283 -0.216499
vn -0.000002 0.867241 -0.497888
vn -0.364568 0.807201 -0.464237
vn -0.347334 0.801721 0.486419
vn 0.000000 0.872645 0.488355
vn 0.000000 0.958490 0.285125
vn -0.387608 0.881866 0.268463
vn -0.227315 0.969769 0.088741
vn -0.227076 0.969823 0.088766
vn -0.387608 0.881866 0.268463
vn 0.000000 0.958490 0.285125
vn 0.000000 1.000000 0.000000
vn 0.000000 1.000000 0.000000
vn 0.000000 1.000000 0.000000
vn 0.000000 1.000000 0.000000
vn 0.320353 0.411633 -0.853189
vn 0.317759 0.411866 -0.854046
vn 0.319223 0.411734 -0.853564
vn 0.320353 0.411633 -0.853189
vn -0.555611 0.810199 -0.186746
vn -0.369082 0.885336 -0.282770
vn -0.339102 0.906824 0.250359
vn -0.491920 0.842077 0.221180
vn -0.369082 0.885336 -0.282770
vn -0.000000 0.951154 -0.308716
vn 0.000006 0.960956 0.276701
vn -0.339102 0.906824 0.250359
vn 0.192024 0.481214 0.855313
vn 0.175672 0.482870 0.857890
vn 0.184309 0.482025 0.856552
vn 0.184309 0.482025 0.856552
vn -0.368845 0.925096 -0.090277
vn -0.000006 0.994185 -0.107688
vn -0.000001 0.936835 0.349772
vn -0.370537 0.856533 0.359241
vn -0.370537 0.856533 0.359241
vn -0.579785 0.757028 0.301262
vn -0.533149 0.842992 -0.071535
vn -0.368845 0.925096 -0.090277
vn -0.580951 0.770648 -0.261913
vn -0.366961 0.900740 -0.232394
vn -0.364568 0.807201 -0.464237
vn -0.537599 0.724137 -0.431988
vn -0.547595 0.754355 -0.362062
vn -0.550470 0.752663 -0.361222
vn -0.537599 0.724137 -0.431988
vn -0.364568 0.807201 -0.464237
vn -0.245960 0.898255 -0.364199
vn -0.245027 0.898470 -0.364299
vn -0.364568 0.807201 -0.464237
vn -0.000002 0.867241 -0.497888
vn -0.566806 0.669459 0.480162
vn -0.347334 0.801721 0.486419
vn -0.387608 0.881866 0.268463
vn -0.595129 0.760843 0.258728
vn -0.569947 0.667629 0.478991
vn -0.571489 0.666697 0.478451
vn -0.579785 0.757028 0.301262
vn -0.370537 0.856533 0.359241
vn -0.201842 0.890527 0.407702
vn -0.202030 0.890490 0.407690
vn -0.370537 0.856533 0.359241
vn -0.000001 0.936835 0.349772
vn -0.600055 0.797790 0.058862
vn -0.600888 0.797178 0.058661
vn -0.595129 0.760843 0.258728
vn -0.387608 0.881866 0.268463
vn -0.859400 0.348735 0.373919
vn -0.859400 0.348735 0.373919
vn -0.859400 0.348735 0.373919
vn -0.859439 0.348689 0.373872
vn 0.917029 -0.357448 -0.176888
vn 0.917029 -0.357448 -0.176888
vn 0.917029 -0.357448 -0.176888
vn 0.928523 -0.365169 0.067056
vn 0.928523 -0.365169 0.067056
vn 0.928523 -0.365169 0.067056
vn 0.928523 -0.365169 0.067056
vn -0.196948 0.124314 0.972501
vn -0.196948 0.124314 0.972501
vn -0.196948 0.124314 0.972501
vn -0.196948 0.124314 0.972501
vn -0.923481 0.377234 -0.069844
vn -0.923481 0.377234 -0.069844
vn -0.923481 0.377234 -0.069844
vn -0.923481 0.377234 -0.069844
vn -0.099826 0.085723 -0.991305
vn -0.099826 0.085723 -0.991305
vn -0.099826 0.085723 -0.991305
vn -0.099826 0.085723 -0.991305
vn 0.860459 -0.327939 -0.389956
vn 0.860459 -0.327939 -0.389956
vn 0.860459 -0.327939 -0.389956
vn -0.862917 0.350351 0.364182
vn -0.862917 0.350351 0.364182
vn -0.862917 0.350351 0.364182
vn -0.323181 0.411369 -0.852250
vn -0.324499 0.411245 -0.851809
vn -0.320291 0.411642 -0.853208
vn -0.320291 0.411642 -0.853208
vn 0.555610 0.810199 -0.186747
vn 0.369081 0.885336 -0.282771
vn 0.564185 0.744416 -0.357128
vn 0.565779 0.743438 -0.356642
vn 0.369081 0.885336 -0.282771
vn -0.000000 0.951154 -0.308716
vn 0.230105 0.901784 -0.365837
vn 0.229746 0.901861 -0.365873
vn -0.369082 0.885336 -0.282770
vn -0.229746 0.901861 -0.365873
vn -0.230105 0.901784 -0.365837
vn -0.000000 0.951154 -0.308716
vn -0.555611 0.810199 -0.186746
vn -0.565779 0.743439 -0.356641
vn -0.564185 0.744417 -0.357127
vn -0.369082 0.885336 -0.282770
vn 0.324500 0.411245 -0.851808
vn 0.323181 0.411369 -0.852250
vn 0.320353 0.411633 -0.853189
vn 0.320353 0.411633 -0.853189
vn 0.580959 0.770643 -0.261910
vn 0.366964 0.900739 -0.232392
vn 0.366964 0.900739 -0.232392
vn -0.000001 0.976283 -0.216499
vn -0.366961 0.900740 -0.232394
vn -0.000001 0.976283 -0.216499
vn -0.580951 0.770648 -0.261913
vn -0.366961 0.900740 -0.232394
vn -0.184334 0.482075 0.856519
vn -0.184334 0.482075 0.856519
vn 0.566793 0.669467 0.480166
vn 0.347327 0.801722 0.486422
vn 0.347327 0.801722 0.486422
vn 0.000000 0.872645 0.488355
vn -0.347334 0.801721 0.486419
vn 0.000000 0.872645 0.488355
vn -0.566806 0.669459 0.480162
vn -0.347334 0.801721 0.486419
vn 0.184309 0.482025 0.856552
vn 0.184309 0.482025 0.856552
s off
g SM_Hammock:SM_Hammock1
usemtl lambert4SG
f 2/1/1 1/2/2 25/3/3 26/4/4
usemtl lambert3SG
f 4/5/5 3/6/6 27/7/7 28/8/8
s 1
usemtl lambert4SG
f 72/93/9 73/94/10 27/7/11 3/6/12
s off
usemtl lambert2SG
f 22/9/13 21/10/14 23/11/15 24/12/16
s 2
usemtl lambert4SG
f 7/13/17 8/14/18 64/84/19 65/85/20
s off
f 10/16/21 9/15/22 12/17/23 11/18/24
f 11/18/25 12/17/26 29/19/27 30/20/28
s 3
f 76/98/29 77/99/30 19/23/31 20/24/32
s off
f 17/25/33 18/26/34 31/27/35 32/28/36
f 18/26/37 17/25/38 20/24/39 19/23/40
f 6/29/41 7/13/42 1/2/43 2/1/44
s 4
usemtl lambert3SG
f 65/85/45 66/86/46 1/2/47 7/13/48
s 5
f 66/86/49 67/87/50 25/3/51 1/2/52
s off
f 14/22/53 15/30/54 3/6/55 4/5/56
s 6
f 77/99/57 78/100/58 18/26/59 19/23/60
s 7
f 78/100/61 79/101/62 31/27/63 18/26/64
s 8
usemtl lambert4SG
f 71/91/65 72/93/66 3/6/67 15/30/68
s off
usemtl lambert2SG
f 6/31/69 71/92/70 15/32/71 22/9/72
f 16/33/73 5/34/74 21/35/75
f 5/36/76 8/37/77 23/38/78 21/39/79
f 8/37/80 7/40/81 24/12/82 23/38/83
f 7/40/84 6/31/85 22/9/86 24/12/87
f 14/41/88 13/42/89 21/35/90 22/9/91
f 13/42/92 16/33/93 21/35/94
f 15/32/95 14/41/96 22/9/97
usemtl lambert4SG
f 34/43/98 26/4/99 25/3/100 33/44/101
usemtl lambert3SG
f 36/45/102 28/8/103 27/7/104 35/46/105
s 9
usemtl lambert4SG
f 73/94/106 74/95/107 35/46/108 27/7/109
s off
usemtl lambert2SG
f 54/47/110 56/48/111 55/49/112 53/50/113
s 10
usemtl lambert4SG
f 39/51/114 69/89/115 70/90/116 40/54/117
s off
f 42/52/118 43/55/119 44/56/120 41/53/121
f 43/55/122 30/20/123 29/19/124 44/56/125
s 11
f 81/103/126 82/104/127 52/58/128 51/59/129
s off
f 49/61/130 32/28/131 31/27/132 50/62/133
f 50/62/134 51/59/135 52/58/136 49/61/137
f 38/63/138 34/43/139 33/44/140 39/51/141
s 12
usemtl lambert3SG
f 68/88/142 69/89/143 39/51/144 33/44/145
s 13
f 67/87/146 68/88/147 33/44/148 25/3/149
s off
f 46/60/150 36/45/151 35/46/152 47/64/153
s 14
f 80/102/154 81/103/155 51/59/156 50/62/157
s 15
f 79/101/158 80/102/159 50/62/160 31/27/161
s 16
usemtl lambert4SG
f 74/95/162 75/96/163 47/64/164 35/46/165
s off
usemtl lambert2SG
f 38/65/166 54/47/167 47/66/168 75/97/169
f 48/67/170 53/68/171 37/69/172
f 37/69/173 53/68/174 55/70/175 40/71/176
f 40/72/177 55/73/178 56/48/179 39/74/180
f 39/74/181 56/48/182 54/47/183 38/65/184
f 46/75/185 54/47/186 53/68/187 45/76/188
f 45/76/189 53/68/190 48/67/191
f 47/66/192 54/47/193 46/75/194
s 2
usemtl lambert4SG
f 58/78/195 57/77/196 9/15/197 10/16/198
s 4
usemtl lambert3SG
f 10/16/199 11/18/200 59/79/201 58/78/202
s 5
f 11/18/203 30/20/204 60/80/205 59/79/206
s 13
f 43/55/207 61/81/208 60/80/209 30/20/210
s 12
f 42/52/211 62/82/212 61/81/213 43/55/214
s 10
usemtl lambert4SG
f 63/83/215 62/82/216 42/52/217 41/53/218
s 2
f 65/85/20 64/84/19 57/77/196 58/78/195
s 4
f 58/78/202 59/79/201 66/86/46 65/85/45
s 5
f 59/79/206 60/80/205 67/87/50 66/86/49
s 13
f 60/80/209 61/81/208 68/88/147 67/87/146
s 12
f 61/81/213 62/82/212 69/89/143 68/88/142
s 10
f 70/90/116 69/89/115 62/82/216 63/83/215
s 8
usemtl lambert3SG
f 6/29/219 2/1/220 72/93/66 71/91/65
s 1
f 2/1/221 26/4/222 73/94/10 72/93/9
s 9
f 34/43/223 74/95/107 73/94/106 26/4/224
s 16
f 38/63/225 75/96/163 74/95/162 34/43/226
s 3
usemtl lambert4SG
f 13/21/227 14/22/228 77/99/30 76/98/29
s 6
f 14/22/229 4/5/230 78/100/58 77/99/57
s 7
f 4/5/231 28/8/232 79/101/62 78/100/61
s 15
f 36/45/233 80/102/159 79/101/158 28/8/234
s 14
f 46/60/235 81/103/155 80/102/154 36/45/236
s 11
f 45/57/237 82/104/127 81/103/126 46/60/238
